<svg width="172" height="29" viewBox="0 0 172 29" fill="none" xmlns="http://www.w3.org/2000/svg">
<mask id="mask0_674_3067" style="mask-type:luminance" maskUnits="userSpaceOnUse" x="0" y="0" width="172" height="29">
<path d="M171.32 0.728516H0.659912V28.5914H171.32V0.728516Z" fill="white"/>
</mask>
<g mask="url(#mask0_674_3067)">
<mask id="mask1_674_3067" style="mask-type:luminance" maskUnits="userSpaceOnUse" x="0" y="0" width="171" height="29">
<path d="M170.497 0.728516H0.659912V28.5913H170.497V0.728516Z" fill="white"/>
</mask>
<g mask="url(#mask1_674_3067)">
<path fill-rule="evenodd" clip-rule="evenodd" d="M0.831787 1.88285V21.9556H8.09947C9.73965 21.9556 11.2008 21.6737 12.4827 21.1097C13.7019 20.5897 14.8036 19.8238 15.7207 18.8584C16.5903 17.9334 17.2681 16.8415 17.7143 15.6469C18.1642 14.4568 18.3942 13.1933 18.3929 11.9191C18.3939 10.6434 18.1588 9.37909 17.7001 8.19101C17.245 6.99781 16.5629 5.90673 15.6924 4.97947C14.7785 4.01695 13.682 3.25126 12.4685 2.72875C11.196 2.165 9.73965 1.88313 8.09947 1.88285H0.831787ZM7.87329 5.89734C8.72411 5.88255 9.56811 6.05378 10.3476 6.39937C11.0463 6.71423 11.6723 7.17331 12.1858 7.74701C12.6859 8.31246 13.0746 8.9695 13.3311 9.68286C13.8589 11.1309 13.8589 12.7223 13.3311 14.1707C13.0724 14.8783 12.6838 15.5302 12.1858 16.092C11.6726 16.666 11.0465 17.1251 10.3476 17.4396C9.56817 17.7852 8.72414 17.9565 7.87329 17.9417H5.41299V5.89734H7.87329ZM20.7256 4.62137C21.0088 5.29093 21.5351 5.82481 22.196 6.11266C22.5407 6.25914 22.9112 6.33252 23.285 6.32797C23.663 6.33139 24.0381 6.25829 24.3878 6.11266C24.721 5.97328 25.0238 5.76849 25.2785 5.51051C25.5311 5.25537 25.7327 4.95359 25.8724 4.62137C26.0151 4.28147 26.0876 3.91541 26.0852 3.54593C26.0865 3.17218 26.0143 2.80157 25.8724 2.45626C25.7372 2.12177 25.5351 1.81885 25.2785 1.56741C24.7433 1.04604 24.0276 0.757913 23.285 0.764455C22.9205 0.755638 22.5583 0.821342 22.2197 0.95787C21.881 1.0944 21.5731 1.29834 21.3144 1.55831C21.0555 1.818 20.8513 2.12775 20.7136 2.46935C20.576 2.81095 20.5079 3.1773 20.5134 3.54593C20.5109 3.91541 20.583 4.28147 20.7256 4.62137ZM21.1356 21.9567H25.4622V8.13412H21.1356V21.9567ZM37.1828 11.8053C37.5764 11.9876 37.928 12.2516 38.215 12.5795C38.8046 13.2619 39.1266 14.1394 39.1201 15.0456C39.1223 15.5106 39.0407 15.9723 38.8797 16.4077C38.7301 16.8199 38.5045 17.1993 38.215 17.5261C37.9249 17.847 37.5739 18.1055 37.1828 18.2861C36.7615 18.481 36.3027 18.5791 35.8397 18.5734C35.3809 18.5802 34.9267 18.4818 34.5108 18.2861C34.1217 18.1032 33.7733 17.8424 33.4868 17.5196C33.1999 17.1967 32.9806 16.8187 32.8423 16.4077C32.6899 15.9703 32.6134 15.5095 32.6159 15.0456C32.6125 14.5865 32.6893 14.1303 32.8423 13.6979C32.9877 13.2869 33.2081 12.9075 33.4925 12.5795C33.7764 12.2539 34.1226 11.9905 34.5108 11.8053C34.9267 11.6096 35.3809 11.5115 35.8397 11.518C36.303 11.5123 36.7612 11.6108 37.1828 11.8053ZM43.4466 8.13469H39.1206V10.1129C38.7309 9.37454 38.1231 8.7778 37.3816 8.40661C36.6185 8.00072 35.7694 7.78911 34.9073 7.79024C33.556 7.76322 32.2316 8.17252 31.1255 8.95898C30.0196 9.74515 29.1899 10.8675 28.7566 12.1634C28.4393 13.0898 28.2814 14.0646 28.29 15.0453C28.2779 16.0101 28.4458 16.9683 28.7847 17.87C29.095 18.6894 29.5611 19.4398 30.1561 20.078C30.7497 20.7058 31.4679 21.199 32.2632 21.5261C33.1208 21.8774 34.0387 22.0529 34.9636 22.0423C35.8203 22.0495 36.6654 21.8427 37.4243 21.4399C38.12 21.0921 38.7071 20.5562 39.1206 19.8915V22.2141C39.1206 23.3038 38.8191 24.0971 38.2158 24.5943C37.6126 25.0915 36.8019 25.3401 35.7839 25.3398C34.841 25.3398 34.1197 25.1009 33.6205 24.623C33.1549 24.2114 32.8574 23.6389 32.7863 23.0171H28.4597C28.4945 23.7714 28.6873 24.5092 29.0252 25.1822C29.372 25.8703 29.8529 26.4801 30.4391 26.9744C31.0666 27.506 31.7925 27.9057 32.5741 28.15C33.4317 28.4373 34.5017 28.5806 35.7839 28.5803C36.8702 28.6014 37.9542 28.4759 39.0077 28.2077C39.8354 27.9876 40.613 27.6078 41.2982 27.0893C42.0036 26.5486 42.5591 25.8324 42.9101 25.0101C43.2679 24.1784 43.4471 23.1317 43.4474 21.87L43.4466 8.13469ZM46.628 4.62166C46.9115 5.29121 47.438 5.82481 48.0993 6.11266C48.4438 6.25914 48.8144 6.33252 49.1879 6.32797C49.5662 6.33139 49.941 6.25829 50.2909 6.11266C50.6242 5.97328 50.9269 5.76849 51.1814 5.51051C51.434 5.25537 51.6357 4.95359 51.7753 4.62137C51.9181 4.28147 51.9907 3.91541 51.9881 3.54593C51.9898 3.17218 51.9173 2.80157 51.7753 2.45626C51.6405 2.12177 51.438 1.81885 51.1814 1.56741C50.6464 1.04604 49.9305 0.757913 49.1879 0.764455C48.8238 0.755638 48.4614 0.821342 48.1227 0.95787C47.7842 1.09411 47.4761 1.29834 47.2173 1.55802C46.9588 1.818 46.7542 2.12775 46.6169 2.46935C46.4792 2.81095 46.4109 3.1773 46.4166 3.54593C46.4141 3.91541 46.4855 4.28176 46.628 4.62166ZM47.0378 21.957H51.3646V8.13412H47.0387V21.9556L47.0378 21.957ZM63.5526 18.6018C63.3108 18.6533 63.0642 18.6775 62.8173 18.6738H61.9979C61.7501 18.6755 61.5032 18.6465 61.2626 18.5876C61.0399 18.5319 60.8351 18.4184 60.6687 18.2582C60.4796 18.0626 60.3433 17.8211 60.2728 17.5568C60.1664 17.1558 60.1186 16.7411 60.1309 16.3261V11.4034H63.2414V8.13412H60.1314V4.03345H55.8325V8.13412H53.6842V11.4034H55.8331V17.3108C55.8331 18.4576 55.9887 19.361 56.2998 20.0206C56.5535 20.6105 56.9648 21.1171 57.4876 21.4831C57.9606 21.7955 58.4971 21.9966 59.0568 22.0711C59.5913 22.1453 60.1297 22.1834 60.6687 22.186C61.3095 22.186 61.8705 22.1618 62.3514 22.114C62.8327 22.0662 63.2332 22.0136 63.5532 21.9562L63.5526 18.6018ZM71.0181 18.2858C70.6327 18.1027 70.2868 17.8447 70.0001 17.5258C69.7106 17.1993 69.485 16.8199 69.3357 16.4077C69.1744 15.9723 69.0928 15.5106 69.0951 15.0456C69.0888 14.1391 69.4108 13.2619 70.0001 12.5792C70.284 12.2539 70.6304 11.9905 71.0181 11.805C71.4365 11.6162 71.8893 11.5183 72.3473 11.5183C72.8055 11.5183 73.2583 11.6162 73.6764 11.805C74.0644 11.9902 74.4108 12.2539 74.6944 12.5792C75.284 13.2616 75.6057 14.1391 75.5995 15.0456C75.6015 15.5106 75.5201 15.9723 75.3591 16.4077C75.2095 16.8199 74.984 17.1993 74.6944 17.5258C74.4077 17.8447 74.0618 18.1029 73.6764 18.2858C73.2583 18.4747 72.8055 18.5725 72.3475 18.5725C71.8896 18.5723 71.4362 18.475 71.0181 18.2858ZM75.5995 8.13441V10.1129C75.414 9.78668 75.1859 9.48774 74.9208 9.22379C74.6307 8.93168 74.3025 8.6808 73.9452 8.47829C73.5658 8.26326 73.1622 8.09487 72.7432 7.97655C72.3203 7.85367 71.8825 7.79081 71.4425 7.78996C70.5132 7.77915 69.5922 7.96972 68.7418 8.34887C67.9445 8.70527 67.2278 9.22236 66.635 9.86888C66.036 10.5342 65.5743 11.3141 65.2777 12.1628C64.9511 13.0872 64.7882 14.0631 64.797 15.0447C64.7882 16.0266 64.9511 17.0022 65.2777 17.9269C65.5741 18.7756 66.0357 19.5555 66.635 20.2208C67.2278 20.8676 67.9445 21.3847 68.7418 21.7408C69.5925 22.12 70.5135 22.3111 71.4431 22.3003C71.8831 22.2992 72.3208 22.2363 72.744 22.1135C73.1607 21.996 73.5641 21.8327 73.9461 21.6262C74.3022 21.4339 74.6304 21.1925 74.9214 20.9092C75.1936 20.6463 75.4226 20.3417 75.6 20.0061V21.9556H79.9268V8.13412L75.5995 8.13441ZM83.6017 21.9564H87.9294V1.88285H83.6017V21.9564Z" fill="black"/>
<path fill-rule="evenodd" clip-rule="evenodd" d="M122.506 13.3262C122.135 13.2158 121.771 13.0816 121.417 12.9243C121.169 12.821 120.943 12.67 120.752 12.4797C120.6 12.3125 120.518 12.0906 120.526 11.863C120.515 11.6782 120.554 11.4936 120.639 11.3294C120.723 11.165 120.851 11.0274 121.007 10.931C121.348 10.7245 121.74 10.6198 122.138 10.6295C122.741 10.6295 123.189 10.787 123.481 11.1025C123.774 11.4179 123.92 11.8625 123.92 12.4359H128.19C128.194 11.805 128.069 11.1804 127.823 10.6007C127.577 10.0262 127.205 9.51619 126.734 9.10945C126.194 8.65691 125.569 8.32043 124.896 8.12019C124.057 7.86761 123.184 7.74644 122.308 7.76123C120.46 7.76123 118.995 8.1054 117.911 8.79344C116.827 9.48177 116.285 10.5436 116.284 11.9785C116.264 12.5525 116.38 13.1231 116.624 13.6419C116.842 14.0725 117.157 14.4457 117.543 14.7316C117.957 15.0336 118.409 15.2794 118.886 15.4628C119.395 15.6639 119.932 15.8502 120.498 16.022C121.139 16.2325 121.69 16.4094 122.152 16.5525C122.539 16.6674 122.917 16.8116 123.283 16.9834C123.527 17.0924 123.748 17.2479 123.934 17.4419C124.082 17.6228 124.158 17.8529 124.147 18.0873C124.147 18.5464 123.981 18.876 123.652 19.0766C123.258 19.2933 122.813 19.3977 122.365 19.3783C121.724 19.3783 121.201 19.2202 120.796 18.9042C120.39 18.5885 120.188 18.0674 120.188 17.3415H115.945C115.945 18.9474 116.506 20.1804 117.628 21.0406C118.749 21.901 120.281 22.331 122.223 22.331C123.025 22.3356 123.826 22.2585 124.613 22.1012C125.307 21.9681 125.972 21.7107 126.578 21.3415C127.128 21.0033 127.586 20.5297 127.907 19.9648C128.227 19.4011 128.388 18.7082 128.388 17.8859C128.408 17.3105 128.287 16.7388 128.034 16.2228C127.803 15.7885 127.479 15.4114 127.087 15.1187C126.661 14.8066 126.195 14.5558 125.701 14.3732C125.173 14.1721 124.608 13.9858 124.005 13.814C123.439 13.6231 122.939 13.4604 122.506 13.3262ZM136.928 13.3262C136.557 13.2158 136.193 13.0816 135.839 12.9243C135.591 12.821 135.365 12.67 135.174 12.4797C135.022 12.3125 134.94 12.0906 134.948 11.863C134.937 11.6782 134.976 11.4936 135.061 11.3294C135.145 11.165 135.273 11.0274 135.429 10.931C135.77 10.7245 136.162 10.6198 136.56 10.6295C137.163 10.6295 137.611 10.787 137.903 11.1025C138.196 11.4179 138.342 11.8625 138.342 12.4359H142.611C142.615 11.805 142.49 11.1804 142.243 10.6007C141.999 10.0262 141.626 9.51619 141.155 9.10945C140.615 8.65691 139.99 8.32043 139.318 8.12019C138.478 7.86761 137.605 7.74644 136.73 7.76123C134.882 7.76123 133.416 8.1054 132.332 8.79344C131.249 9.48177 130.707 10.5436 130.706 11.9785C130.686 12.5525 130.802 13.1231 131.046 13.6419C131.264 14.0725 131.579 14.4457 131.965 14.7316C132.379 15.0336 132.831 15.2794 133.308 15.4628C133.817 15.6639 134.354 15.8502 134.92 16.022C135.561 16.2325 136.112 16.4094 136.574 16.5525C136.961 16.6674 137.34 16.8116 137.705 16.9834C137.95 17.0924 138.17 17.2479 138.356 17.4419C138.504 17.6228 138.58 17.8529 138.569 18.0873C138.569 18.5464 138.404 18.876 138.074 19.0766C137.68 19.2933 137.235 19.3977 136.787 19.3783C136.146 19.3783 135.623 19.2202 135.218 18.9042C134.812 18.5885 134.61 18.0674 134.61 17.3415H130.367C130.367 18.9474 130.928 20.1804 132.05 21.0406C133.171 21.901 134.703 22.331 136.645 22.331C137.447 22.3356 138.248 22.2585 139.034 22.1012C139.729 21.9681 140.395 21.7107 140.999 21.3415C141.55 21.0033 142.008 20.5297 142.329 19.9648C142.65 19.4011 142.811 18.7082 142.811 17.8859C142.831 17.3102 142.709 16.7388 142.457 16.2228C142.226 15.7885 141.901 15.4114 141.509 15.1187C141.083 14.8066 140.617 14.5558 140.123 14.3732C139.596 14.1721 139.03 13.9858 138.427 13.814C137.861 13.6231 137.361 13.4604 136.928 13.3262ZM158.928 16.1079C158.997 15.7387 159.04 15.365 159.056 14.9895C159.065 14.6644 159.07 14.3584 159.07 14.072C159.071 13.242 158.902 12.4211 158.575 11.6608C158.246 10.9008 157.764 10.2179 157.161 9.65556C156.517 9.06252 155.768 8.59576 154.955 8.27919C154.03 7.92279 153.046 7.74787 152.056 7.76294C150.988 7.74075 149.926 7.93559 148.932 8.33664C148.078 8.69019 147.307 9.22293 146.67 9.89932C146.055 10.5632 145.582 11.3494 145.285 12.2078C144.967 13.1197 144.809 14.0802 144.817 15.0467C144.806 16.0476 144.969 17.0426 145.299 17.986C145.602 18.8484 146.083 19.6355 146.713 20.2945C147.361 20.9626 148.149 21.4766 149.018 21.8C150.888 22.4488 152.911 22.504 154.813 21.9582C155.544 21.736 156.232 21.3921 156.85 20.9399C157.404 20.5334 157.874 20.0223 158.236 19.4344C158.58 18.8755 158.806 18.2506 158.899 17.5992H154.659C154.504 18.0438 154.224 18.4326 153.853 18.7176C153.466 19.0239 152.895 19.177 152.142 19.1764C151.659 19.1912 151.178 19.1081 150.727 18.9321C150.375 18.7876 150.061 18.5617 149.809 18.2727C149.57 17.99 149.396 17.657 149.3 17.2977C149.194 16.9095 149.132 16.5101 149.115 16.1076L158.928 16.1079ZM154.051 11.4623C154.568 11.9785 154.827 12.6859 154.828 13.5844H149.115C149.115 12.6481 149.389 11.931 149.936 11.4335C150.482 10.9361 151.18 10.6878 152.029 10.6881C152.859 10.6881 153.532 10.946 154.051 11.4623ZM170.382 18.6027C170.14 18.6542 169.893 18.6781 169.647 18.6747H168.827C168.579 18.6764 168.331 18.6473 168.092 18.5885C167.869 18.5327 167.664 18.419 167.497 18.2591C167.309 18.0631 167.172 17.8216 167.101 17.558C166.995 17.1566 166.948 16.7419 166.96 16.3269V11.4048H170.071V8.13583H166.96V4.03516H162.661V8.13583H160.512V11.4048H162.661V17.3122C162.661 18.4593 162.816 19.3627 163.127 20.0223C163.382 20.6122 163.792 21.1188 164.315 21.4846C164.789 21.7969 165.325 21.9977 165.886 22.0725C166.419 22.1467 166.958 22.1851 167.497 22.1874C168.139 22.1874 168.699 22.1635 169.179 22.1157C169.661 22.0677 170.061 22.015 170.382 21.9576V18.6027Z" fill="black"/>
<path fill-rule="evenodd" clip-rule="evenodd" d="M104.234 14.793L102.049 21.9783H97.6794L99.8645 14.793H104.234Z" fill="black"/>
<path fill-rule="evenodd" clip-rule="evenodd" d="M103.812 1.875L109.961 21.9864H114.31L108.162 1.875H103.812Z" fill="black"/>
<path fill-rule="evenodd" clip-rule="evenodd" d="M108.166 1.86719L105.924 9.23515H101.554L103.796 1.86776L108.166 1.86719Z" fill="black"/>
</g>
</g>
</svg>
