<svg width="84" height="60" viewBox="0 0 84 60" fill="none" xmlns="http://www.w3.org/2000/svg">
<g clip-path="url(#clip0_674_3406)">
<path d="M25.866 15.4261C25.866 16.4487 25.4885 17.2353 24.7337 17.7859C23.9788 18.3365 22.7854 18.6124 21.1533 18.6137H14.4209V12.2367H21.1533C22.7841 12.2367 23.9776 12.5025 24.7337 13.034C25.4898 13.5656 25.8672 14.363 25.866 15.4261Z" fill="url(#paint0_linear_674_3406)"/>
<path d="M27.8857 31.5483C27.8857 32.6521 27.4878 33.49 26.6922 34.0622C25.8966 34.6344 24.7031 34.9205 23.1118 34.9205H14.4209V28.1781H23.1118C24.7031 28.1781 25.8966 28.4642 26.6922 29.0363C27.4878 29.6085 27.8857 30.4458 27.8857 31.5483Z" fill="url(#paint1_linear_674_3406)"/>
<path d="M79.0012 13.204V2.35678H27.5233C31.2503 2.76784 34.1454 3.74472 36.2084 5.28743C39.0238 7.39217 40.4315 10.0792 40.4315 13.3486C40.4608 15.4216 39.8286 17.4504 38.626 19.1433C37.5564 20.6077 36.1522 21.7981 34.5292 22.6163L34.8314 22.7286C37.254 23.6712 39.1309 25.0306 40.4621 26.8067C41.7933 28.5829 42.4563 30.7168 42.4512 33.2085C42.4512 36.9283 40.9109 39.8304 37.8303 41.9148C34.7498 43.9992 30.2513 45.0414 24.335 45.0414H50.8915V31.3778H75.5413V20.5306H50.8915V13.204H79.0012Z" fill="url(#paint2_linear_674_3406)"/>
<path d="M14.4112 8.87436H10.6357V12.237H14.4112V8.87436Z" fill="url(#paint3_linear_674_3406)"/>
<path d="M8.83763 2.34897H4.07715V7.08558H8.83763V2.34897Z" fill="url(#paint4_linear_674_3406)"/>
<path d="M14.42 2.34897H11.335V5.41854H14.42V2.34897Z" fill="url(#paint5_linear_674_3406)"/>
<path d="M7.16219 10.9544H4.07715V14.024H7.16219V10.9544Z" fill="url(#paint6_linear_674_3406)"/>
<path d="M10.6346 7.08551H8.83862V8.87244H10.6346V7.08551Z" fill="url(#paint7_linear_674_3406)"/>
<path d="M10.6346 12.2368H8.83862V14.0238H10.6346V12.2368Z" fill="url(#paint8_linear_674_3406)"/>
<path d="M16.209 7.0853H14.4131V8.87223H16.209V7.0853Z" fill="url(#paint9_linear_674_3406)"/>
</g>
<path d="M17.8762 51.4393C18.2117 51.6379 18.4788 51.9085 18.6774 52.2509C18.8829 52.5864 18.9856 52.9597 18.9856 53.3706C18.9856 53.6856 18.924 53.9835 18.8007 54.2643C18.6774 54.5382 18.5062 54.7779 18.2871 54.9833C18.0748 55.1888 17.8248 55.3531 17.5372 55.4764C17.2564 55.5928 16.9517 55.651 16.6229 55.651H9.78153H8.53857V47.7413H16.0271C16.3559 47.7413 16.6606 47.8029 16.9414 47.9262C17.229 48.0426 17.479 48.2035 17.6913 48.409C17.9104 48.6144 18.0816 48.8576 18.2049 49.1383C18.3282 49.4123 18.3898 49.7067 18.3898 50.0218C18.3898 50.2888 18.3419 50.5422 18.246 50.7819C18.157 51.0216 18.0337 51.2407 17.8762 51.4393ZM9.78153 51.1004H16.0271C16.1778 51.1004 16.3216 51.073 16.4586 51.0182C16.5955 50.9634 16.712 50.8881 16.8078 50.7922C16.9106 50.6895 16.9893 50.573 17.0441 50.4429C17.1057 50.3128 17.1366 50.1724 17.1366 50.0218C17.1366 49.8779 17.1057 49.741 17.0441 49.6109C16.9893 49.4807 16.9106 49.3678 16.8078 49.2719C16.712 49.1692 16.5955 49.0904 16.4586 49.0356C16.3216 48.9808 16.1778 48.9534 16.0271 48.9534H9.78153V51.1004ZM17.7324 53.3706C17.7324 53.2267 17.7015 53.0898 17.6399 52.9597C17.5851 52.8295 17.5064 52.7165 17.4036 52.6207C17.3078 52.5179 17.1913 52.4392 17.0544 52.3844C16.9174 52.3296 16.7736 52.3022 16.6229 52.3022H9.78153V54.4492H16.6229C16.7736 54.4492 16.9174 54.4218 17.0544 54.367C17.1913 54.3122 17.3078 54.2369 17.4036 54.141C17.5064 54.0383 17.5851 53.9218 17.6399 53.7917C17.7015 53.6616 17.7324 53.5212 17.7324 53.3706ZM29.866 48.9534H21.2577V51.1004H29.0853V52.3022H21.2577V55.651H20.0148V47.7413H29.866V48.9534ZM40.7916 53.4116C40.7848 53.7198 40.7197 54.0109 40.5964 54.2848C40.4732 54.5587 40.3054 54.7984 40.0931 55.0039C39.8808 55.2025 39.6308 55.36 39.3432 55.4764C39.0624 55.5928 38.7611 55.651 38.4392 55.651H33.2414C32.9195 55.651 32.6148 55.5928 32.3272 55.4764C32.0464 55.36 31.7999 55.2025 31.5876 55.0039C31.3753 54.7984 31.2075 54.5587 31.0842 54.2848C30.9609 54.0109 30.8959 53.7198 30.889 53.4116V49.9909C30.8959 49.6828 30.9609 49.3917 31.0842 49.1178C31.2075 48.8439 31.3753 48.6042 31.5876 48.3987C31.7999 48.1933 32.0464 48.0323 32.3272 47.9159C32.6148 47.7995 32.9195 47.7413 33.2414 47.7413H38.4392C38.7611 47.7413 39.0624 47.7995 39.3432 47.9159C39.6308 48.0323 39.8808 48.1933 40.0931 48.3987C40.3054 48.6042 40.4732 48.8439 40.5964 49.1178C40.7197 49.3917 40.7848 49.6828 40.7916 49.9909V53.4116ZM39.5487 49.9909C39.535 49.7033 39.422 49.4602 39.2097 49.2616C38.9974 49.0562 38.7406 48.9534 38.4392 48.9534H33.2414C32.9401 48.9534 32.6833 49.0562 32.471 49.2616C32.2587 49.4602 32.1457 49.7033 32.132 49.9909V53.4116C32.1457 53.6993 32.2587 53.9458 32.471 54.1513C32.6833 54.3499 32.9401 54.4492 33.2414 54.4492H38.4392C38.7406 54.4492 38.9974 54.3499 39.2097 54.1513C39.422 53.9458 39.535 53.6993 39.5487 53.4116V49.9909ZM50.4934 50.0012V49.9909C50.4797 49.7033 50.3667 49.4602 50.1544 49.2616C49.949 49.0562 49.6922 48.9534 49.384 48.9534H44.1759C43.8746 48.9534 43.6178 49.0562 43.4055 49.2616C43.1932 49.4602 43.0802 49.7033 43.0665 49.9909V53.4116C43.0802 53.6993 43.1932 53.9458 43.4055 54.1513C43.6178 54.3499 43.8746 54.4492 44.1759 54.4492H49.384C49.6922 54.4492 49.949 54.3499 50.1544 54.1513C50.3667 53.9458 50.4797 53.6993 50.4934 53.4116V53.3911H51.7466V53.4116C51.7398 53.7198 51.6747 54.0109 51.5515 54.2848C51.4282 54.5587 51.257 54.7984 51.0378 55.0039C50.8255 55.2025 50.5756 55.36 50.288 55.4764C50.0072 55.5928 49.7059 55.651 49.384 55.651H44.1759C43.854 55.651 43.5493 55.5928 43.2616 55.4764C42.9809 55.36 42.7343 55.2025 42.522 55.0039C42.3097 54.7984 42.142 54.5587 42.0187 54.2848C41.8954 54.0109 41.8304 53.7198 41.8235 53.4116V49.9909C41.8304 49.6828 41.8954 49.3917 42.0187 49.1178C42.142 48.8439 42.3097 48.6042 42.522 48.3987C42.7343 48.1933 42.9809 48.0323 43.2616 47.9159C43.5493 47.7995 43.854 47.7413 44.1759 47.7413H49.384C49.7059 47.7413 50.0072 47.7995 50.288 47.9159C50.5756 48.0323 50.8255 48.1933 51.0378 48.3987C51.257 48.6042 51.4282 48.8439 51.5515 49.1178C51.6747 49.3917 51.7398 49.6828 51.7466 49.9909V50.0012H50.4934ZM60.8624 55.651L59.8763 53.6685H55.1715L54.1751 55.651H52.7781L56.7432 47.7413H58.2943L62.2595 55.651H60.8624ZM55.7776 52.4666H59.2702L57.5239 48.974L55.7776 52.4666ZM64.5342 54.4492H73.1424V55.651H63.2912V47.7413H64.5342V54.4492Z" fill="#037AE2"/>
<defs>
<linearGradient id="paint0_linear_674_3406" x1="20.1434" y1="12.2367" x2="20.1434" y2="18.6137" gradientUnits="userSpaceOnUse">
<stop stop-color="#048EF9"/>
<stop offset="1" stop-color="#004AAD"/>
</linearGradient>
<linearGradient id="paint1_linear_674_3406" x1="21.1533" y1="28.1781" x2="21.1533" y2="34.9205" gradientUnits="userSpaceOnUse">
<stop stop-color="#048EF9"/>
<stop offset="1" stop-color="#004AAD"/>
</linearGradient>
<linearGradient id="paint2_linear_674_3406" x1="51.6681" y1="2.35678" x2="51.6681" y2="45.0414" gradientUnits="userSpaceOnUse">
<stop stop-color="#048EF9"/>
<stop offset="1" stop-color="#004AAD"/>
</linearGradient>
<linearGradient id="paint3_linear_674_3406" x1="12.5235" y1="8.87436" x2="12.5235" y2="12.237" gradientUnits="userSpaceOnUse">
<stop stop-color="#048EF9"/>
<stop offset="1" stop-color="#004AAD"/>
</linearGradient>
<linearGradient id="paint4_linear_674_3406" x1="6.45739" y1="2.34897" x2="6.45739" y2="7.08558" gradientUnits="userSpaceOnUse">
<stop stop-color="#048EF9"/>
<stop offset="1" stop-color="#004AAD"/>
</linearGradient>
<linearGradient id="paint5_linear_674_3406" x1="12.8775" y1="2.34897" x2="12.8775" y2="5.41854" gradientUnits="userSpaceOnUse">
<stop stop-color="#048EF9"/>
<stop offset="1" stop-color="#004AAD"/>
</linearGradient>
<linearGradient id="paint6_linear_674_3406" x1="5.61967" y1="10.9544" x2="5.61967" y2="14.024" gradientUnits="userSpaceOnUse">
<stop stop-color="#048EF9"/>
<stop offset="1" stop-color="#004AAD"/>
</linearGradient>
<linearGradient id="paint7_linear_674_3406" x1="9.73659" y1="7.08551" x2="9.73659" y2="8.87244" gradientUnits="userSpaceOnUse">
<stop stop-color="#048EF9"/>
<stop offset="1" stop-color="#004AAD"/>
</linearGradient>
<linearGradient id="paint8_linear_674_3406" x1="9.73659" y1="12.2368" x2="9.73659" y2="14.0238" gradientUnits="userSpaceOnUse">
<stop stop-color="#048EF9"/>
<stop offset="1" stop-color="#004AAD"/>
</linearGradient>
<linearGradient id="paint9_linear_674_3406" x1="15.3111" y1="7.0853" x2="15.3111" y2="8.87223" gradientUnits="userSpaceOnUse">
<stop stop-color="#048EF9"/>
<stop offset="1" stop-color="#004AAD"/>
</linearGradient>
<clipPath id="clip0_674_3406">
<rect width="74.9226" height="42.6885" fill="white" transform="translate(4.07715 2.34897)"/>
</clipPath>
</defs>
</svg>
