<svg width="75" height="58" viewBox="0 0 75 58" fill="none" xmlns="http://www.w3.org/2000/svg">
<path d="M74.7279 33.2058C74.7279 35.8237 72.5913 37.9606 69.9733 37.9606C67.3554 37.9606 65.2188 35.8237 65.2188 33.2058C65.2188 30.5878 67.3554 28.4512 69.9733 28.4512C72.5913 28.4512 74.7279 30.5739 74.7279 33.2058Z" fill="black"/>
<path d="M46.4005 19.1404L52.8674 9.74427V0.220703H32.2921L25.7401 9.74427H41.2637L33.2825 21.3621L38.0373 29.6121C39.4524 28.8057 41.0938 28.3244 42.8627 28.3244C48.1833 28.3244 52.5136 32.6262 52.5136 37.9752C52.5136 43.3243 48.1833 47.6264 42.8627 47.6264C37.5418 47.6264 33.2116 43.2961 33.2116 37.9752H23.7025C23.7025 48.5601 32.2921 57.1358 42.8485 57.1358C53.4334 57.1358 62.0088 48.5459 62.0088 37.9752C62.0088 28.5932 55.2731 20.796 46.4005 19.1404ZM19.2024 0.220703C15.707 0.220703 12.4523 1.15467 9.62215 2.79616V0.220703H0.0703125V37.9613H9.60793V19.3386C9.60793 14.032 13.8958 9.75841 19.1882 9.75841L22.3864 9.74427L28.9383 0.220703H19.2024Z" fill="black"/>
</svg>
