<svg width="172" height="86" viewBox="0 0 172 86" fill="none" xmlns="http://www.w3.org/2000/svg">
<g clip-path="url(#clip0_674_3103)">
<g clip-path="url(#clip1_674_3103)">
<mask id="mask0_674_3103" style="mask-type:luminance" maskUnits="userSpaceOnUse" x="0" y="27" width="172" height="31">
<path d="M171.3 27.59H0.640137V57.7323H171.3V27.59Z" fill="white"/>
</mask>
<g mask="url(#mask0_674_3103)">
<path d="M67.8901 57.5428H68.9576V55.975H70.5521V54.9743H68.9576V54.007H70.9458V53.006H67.8901V57.5428Z" fill="black"/>
<path d="M79.4032 53.2431C79.0695 53.0409 78.6759 52.9396 78.2222 52.9396C77.7688 52.9396 77.3749 53.0409 77.0415 53.2431C76.7079 53.4456 76.4522 53.7235 76.2741 54.0771C76.0964 54.4306 76.0073 54.83 76.0073 55.2748C76.0073 55.7194 76.0964 56.1188 76.2741 56.4723C76.4522 56.8259 76.7079 57.104 77.0415 57.3063C77.3749 57.5088 77.7688 57.6097 78.2222 57.6097C78.6759 57.6097 79.0695 57.5088 79.4032 57.3063C79.7368 57.104 79.9925 56.8259 80.1706 56.4723C80.3483 56.1188 80.4371 55.7194 80.4371 55.2748C80.4371 54.83 80.3483 54.4306 80.1706 54.0771C79.9925 53.7235 79.7368 53.4456 79.4032 53.2431ZM79.0596 56.2888C78.8528 56.5022 78.5735 56.6091 78.2222 56.6091C77.8709 56.6091 77.5919 56.5022 77.3848 56.2888C77.1783 56.0752 77.0748 55.7373 77.0748 55.2748C77.0748 54.8121 77.1783 54.4742 77.3848 54.2605C77.5919 54.0472 77.8709 53.9403 78.2222 53.9403C78.5735 53.9403 78.8528 54.0472 79.0596 54.2605C79.2664 54.4742 79.3699 54.8121 79.3699 55.2748C79.3699 55.7373 79.2664 56.0752 79.0596 56.2888Z" fill="black"/>
<path d="M87.9808 55.608C87.9808 55.8438 87.9541 56.033 87.9006 56.1752C87.8474 56.3177 87.7516 56.4252 87.6139 56.4986C87.4759 56.572 87.278 56.609 87.02 56.609C86.762 56.609 86.564 56.572 86.4264 56.4986C86.2884 56.4252 86.1929 56.3177 86.1394 56.1752C86.0859 56.033 86.0592 55.8438 86.0592 55.608V53.006H84.9917V55.8748C84.9917 56.4443 85.1763 56.8758 85.5455 57.1693C85.9147 57.4628 86.4062 57.6096 87.02 57.6096C87.6338 57.6096 88.1253 57.4628 88.4945 57.1693C88.8634 56.8758 89.0483 56.4443 89.0483 55.8748V53.006H87.9808V55.608Z" fill="black"/>
<path d="M96.7552 55.5947H96.6485L94.887 53.006H93.8198V57.5428H94.887V54.9541H94.994L96.7552 57.5428H97.8227V53.006H96.7552V55.5947Z" fill="black"/>
<path d="M104.35 53.006H102.656V57.5428H104.35C105.84 57.5428 106.585 56.7867 106.585 55.2744C106.585 53.7623 105.84 53.006 104.35 53.006ZM105.438 56.0182C105.385 56.194 105.274 56.3254 105.108 56.4118C104.941 56.4986 104.688 56.5421 104.35 56.5421H103.723V54.007H104.35C104.693 54.007 104.946 54.0491 105.111 54.1335C105.275 54.218 105.385 54.3471 105.438 54.5206C105.491 54.6942 105.518 54.9453 105.518 55.2744C105.518 55.5947 105.491 55.8427 105.438 56.0182Z" fill="black"/>
<path d="M112.145 53.006L110.804 57.5428H111.952L112.158 56.8089H113.76L113.967 57.5428H115.114L113.773 53.006H112.145ZM112.439 55.8083L112.906 54.127H113.013L113.48 55.8083H112.439Z" fill="black"/>
<path d="M119.097 54.007H120.291V57.5428H121.359V54.007H122.553V53.006H119.097V54.007Z" fill="black"/>
<path d="M128.524 53.006H127.457V57.5428H128.524V53.006Z" fill="black"/>
<path d="M136.337 53.2431C136.003 53.0409 135.609 52.9396 135.156 52.9396C134.702 52.9396 134.308 53.0409 133.975 53.2431C133.641 53.4456 133.386 53.7235 133.208 54.0771C133.03 54.4306 132.941 54.83 132.941 55.2748C132.941 55.7194 133.03 56.1188 133.208 56.4723C133.386 56.8259 133.641 57.104 133.975 57.3063C134.308 57.5088 134.702 57.6097 135.156 57.6097C135.609 57.6097 136.003 57.5088 136.337 57.3063C136.67 57.104 136.926 56.8259 137.104 56.4723C137.282 56.1188 137.371 55.7194 137.371 55.2748C137.371 54.83 137.282 54.4306 137.104 54.0771C136.926 53.7235 136.67 53.4456 136.337 53.2431ZM135.993 56.2888C135.786 56.5022 135.507 56.6091 135.156 56.6091C134.805 56.6091 134.525 56.5022 134.319 56.2888C134.112 56.0752 134.008 55.7373 134.008 55.2748C134.008 54.8121 134.112 54.4742 134.319 54.2605C134.525 54.0472 134.805 53.9403 135.156 53.9403C135.507 53.9403 135.786 54.0472 135.993 54.2605C136.2 54.4742 136.303 54.8121 136.303 55.2748C136.303 55.7373 136.2 56.0752 135.993 56.2888Z" fill="black"/>
<path d="M144.708 55.5947H144.602L142.84 53.006H141.773V57.5428H142.84V54.9541H142.947L144.708 57.5428H145.776V53.006H144.708V55.5947Z" fill="black"/>
<path d="M121.405 42.586C121.414 42.5195 121.417 42.4524 121.42 42.383L121.42 42.377H119.621L119.615 42.4268C119.567 42.8383 119.308 43.1367 118.921 43.2246C118.772 43.2587 118.622 43.2761 118.474 43.2761C116.755 43.2795 115.035 43.2792 113.316 43.2764C113.166 43.2761 113.016 43.2587 112.869 43.2255C112.531 43.1484 112.303 42.943 112.209 42.6316C112.173 42.5129 112.152 42.3798 112.148 42.2356C112.141 42.0368 112.143 41.8351 112.144 41.64V41.2239L121.433 41.2401L121.433 40.5816C121.434 40.0754 121.435 39.5691 121.431 39.0631C121.429 38.8275 121.415 38.6193 121.387 38.4262C121.311 37.9074 121.072 37.4654 120.675 37.1124C120.146 36.6414 119.499 36.4008 118.752 36.3968C117.934 36.3925 117.108 36.3908 116.286 36.3908C115.379 36.3908 114.476 36.3928 113.589 36.3945L113.033 36.3956C112.865 36.3959 112.683 36.413 112.491 36.4466C112.163 36.5046 111.856 36.6135 111.58 36.7705C111.158 37.0112 110.846 37.3195 110.626 37.7126C110.43 38.0636 110.335 38.4493 110.335 38.8924L110.336 40.314C110.336 40.9543 110.336 41.5942 110.337 42.2345C110.337 42.3622 110.347 42.4979 110.366 42.6375C110.464 43.3498 110.841 43.9107 111.487 44.3043C111.96 44.5924 112.504 44.7386 113.104 44.7389C114.781 44.7401 116.457 44.7395 118.134 44.7392H118.693C119.182 44.7392 119.635 44.6388 120.04 44.4414C120.849 44.0469 121.295 43.4399 121.405 42.586ZM112.147 38.7704C112.166 38.315 112.444 37.9882 112.89 37.8957C113.036 37.8653 113.19 37.8497 113.348 37.8497C114.665 37.8474 115.982 37.8474 117.3 37.8474H118.452C118.609 37.8474 118.816 37.8565 119.021 37.9267C119.382 38.0505 119.587 38.3167 119.615 38.6967C119.631 38.916 119.629 39.1384 119.626 39.3537C119.626 39.4453 119.624 39.5372 119.625 39.6288L119.624 39.7594H112.142V39.5964C112.142 39.5156 112.142 39.4354 112.142 39.3549C112.141 39.1635 112.139 38.9658 112.147 38.7704Z" fill="black"/>
<path d="M160.785 38.4262C160.71 37.9074 160.47 37.4654 160.074 37.1124C159.545 36.6414 158.898 36.4008 158.151 36.3968C157.332 36.3925 156.506 36.3908 155.684 36.3908C154.777 36.3908 153.874 36.3928 152.987 36.3945L152.431 36.3956C152.264 36.3959 152.082 36.413 151.89 36.4466C151.561 36.5046 151.254 36.6135 150.979 36.7705C150.556 37.0112 150.244 37.3195 150.025 37.7126C149.828 38.0636 149.733 38.4493 149.734 38.8924L149.734 40.314C149.734 40.9543 149.734 41.5942 149.736 42.2345C149.736 42.3622 149.746 42.4979 149.765 42.6375C149.862 43.3498 150.239 43.9107 150.885 44.3043C151.358 44.5924 151.902 44.7386 152.502 44.7389C154.179 44.7401 155.856 44.7395 157.532 44.7392H158.091C158.58 44.7392 159.033 44.6388 159.438 44.4414C160.247 44.0469 160.694 43.4399 160.803 42.586C160.812 42.5195 160.815 42.4524 160.819 42.383L160.819 42.377H159.019L159.014 42.4268C158.965 42.8383 158.706 43.1367 158.32 43.2246C158.17 43.2587 158.02 43.2761 157.873 43.2761C156.153 43.2795 154.434 43.2792 152.714 43.2764C152.564 43.2761 152.414 43.2587 152.267 43.2255C151.93 43.1484 151.701 42.943 151.607 42.6316C151.571 42.5129 151.551 42.3798 151.546 42.2356C151.54 42.0368 151.541 41.8351 151.543 41.64V41.2239L160.831 41.2401L160.832 40.5816C160.833 40.0754 160.833 39.5691 160.829 39.0631C160.827 38.8275 160.813 38.6193 160.785 38.4262ZM159.025 39.3537C159.024 39.4453 159.023 39.5372 159.023 39.6288L159.023 39.7594H151.54V39.5964C151.541 39.5156 151.541 39.4354 151.54 39.3549C151.539 39.1635 151.538 38.9658 151.546 38.7704C151.565 38.315 151.842 37.9882 152.288 37.8957C152.435 37.8653 152.589 37.8497 152.747 37.8497C154.064 37.8474 155.38 37.8474 156.698 37.8474H157.85C158.008 37.8474 158.215 37.8565 158.42 37.9267C158.781 38.0505 158.986 38.3167 159.014 38.6967C159.03 38.916 159.027 39.1384 159.025 39.3537Z" fill="black"/>
<path d="M93.8865 38.4262C93.8112 37.9071 93.572 37.4651 93.1755 37.1124C92.6464 36.6414 91.9993 36.4008 91.2524 36.3968C90.4338 36.3925 89.6081 36.3908 88.7855 36.3908C87.879 36.3908 86.9762 36.3928 86.0888 36.3945L85.5333 36.3956C85.3655 36.3959 85.1832 36.413 84.9915 36.4466C84.6629 36.5046 84.3563 36.6135 84.0807 36.7705C83.658 37.0114 83.346 37.3195 83.1261 37.7126C82.9302 38.0633 82.8352 38.4493 82.8354 38.8924L82.836 40.2978C82.836 40.9434 82.836 41.5891 82.8374 42.2345C82.8377 42.3619 82.8474 42.4976 82.8665 42.6375C82.9637 43.35 83.3409 43.9107 83.9871 44.3043C84.4599 44.5924 85.004 44.7386 85.6038 44.7389C87.2809 44.7401 88.9573 44.7395 90.634 44.7392H91.193C91.6816 44.7392 92.135 44.6388 92.54 44.4414C93.3487 44.0469 93.7952 43.4399 93.9053 42.586C93.9138 42.5198 93.917 42.4529 93.9204 42.3835L93.9207 42.377H92.1213L92.1151 42.4268C92.0673 42.8383 91.8079 43.1367 91.4211 43.2246C91.2723 43.2587 91.1219 43.2761 90.9745 43.2761C89.2551 43.2795 87.5354 43.2792 85.8157 43.2764C85.6661 43.2761 85.5157 43.2587 85.3689 43.2255C85.0313 43.1484 84.8032 42.943 84.709 42.6316C84.6732 42.5129 84.6527 42.3798 84.6479 42.2356C84.6413 42.0368 84.643 41.8351 84.6445 41.64L84.6456 41.4492C84.6459 41.4233 84.649 41.3974 84.6535 41.3658L84.6683 41.2401H93.9332L93.9338 40.5794C93.9343 40.0739 93.9352 39.5685 93.9309 39.0631C93.9292 38.8275 93.9147 38.6193 93.8865 38.4262ZM92.1231 39.3646C92.1219 39.4564 92.1211 39.5483 92.1213 39.6402C92.1216 39.6661 92.1122 39.6857 92.106 39.6988L92.0824 39.7565L92.0135 39.7707H84.6598L84.6453 39.6655C84.6419 39.6442 84.6393 39.6257 84.6393 39.6075C84.6396 39.527 84.639 39.4465 84.6385 39.366C84.6371 39.1748 84.6356 38.9772 84.6439 38.7818C84.6627 38.3264 84.9403 37.9993 85.3863 37.9071C85.5325 37.8764 85.6869 37.861 85.8448 37.8608C87.1617 37.8588 88.4789 37.8588 89.7958 37.8588H90.9483C91.1056 37.8588 91.3127 37.8676 91.5181 37.9381C91.8787 38.0616 92.0838 38.3278 92.1117 38.7078C92.1276 38.9271 92.1253 39.1495 92.1231 39.3646Z" fill="black"/>
<path d="M44.1802 38.5979V32.1447H42.3667V44.7261C42.5783 44.7258 42.7484 44.7243 42.9418 44.7229C43.2311 44.7206 43.5721 44.7181 44.1802 44.7178V43.3005C44.1856 42.0441 44.1802 42.3232 44.1802 41.0668V38.5979Z" fill="black"/>
<path d="M170.978 37.6928C170.76 37.2818 170.45 36.9613 170.058 36.7397C169.659 36.5144 169.203 36.4012 168.663 36.3941C167.932 36.3844 167.275 36.3844 166.655 36.3944C166.235 36.4012 165.822 36.4914 165.463 36.6504C165.218 36.7585 165.003 36.9232 164.816 37.1143L164.806 37.1248V36.414H162.992C162.992 36.414 163.035 44.7511 163.006 44.7334H164.808L164.833 39.0951C164.834 38.9233 164.842 38.7831 164.859 38.6545C164.902 38.3286 165.075 38.0965 165.374 37.9645C165.585 37.8712 165.801 37.8584 165.985 37.8578C166.769 37.857 167.553 37.8558 168.336 37.8589C168.462 37.8595 168.586 37.8769 168.712 37.8956C169.165 37.9648 169.459 38.301 169.494 38.7947H171.301C171.241 38.3456 171.138 37.9949 170.978 37.6928Z" fill="black"/>
<path d="M104.189 37.6948C103.97 37.2838 103.661 36.9632 103.269 36.7417C102.87 36.5164 102.414 36.4032 101.874 36.3961C101.142 36.3864 100.486 36.3864 99.8661 36.3964C99.4457 36.4032 99.033 36.4933 98.6735 36.6523C98.4292 36.7604 98.2136 36.9251 98.0267 37.1163L98.0165 37.1268V36.416H96.2026C96.2026 36.416 96.2456 44.753 96.2169 44.7354H98.0182L98.0435 39.0971C98.0446 38.9253 98.0529 38.785 98.0699 38.6565C98.1129 38.3305 98.2864 38.0984 98.5851 37.9664C98.7958 37.8731 99.0123 37.8603 99.196 37.8598C99.9799 37.8589 100.763 37.8578 101.547 37.8609C101.673 37.8615 101.796 37.8788 101.923 37.8976C102.376 37.9667 102.669 38.3029 102.705 38.7967H104.512C104.452 38.3476 104.349 37.9969 104.189 37.6948Z" fill="black"/>
<path d="M77.9975 44.737C78.0925 44.737 78.1918 44.7247 78.2879 44.7131L78.311 44.7102C78.8309 44.6479 79.2977 44.4679 79.6984 44.1752C80.0506 43.9181 80.3006 43.6098 80.4624 43.2323C80.5913 42.9322 80.6536 42.6037 80.6533 42.2283C80.6518 41.1562 80.6524 40.0845 80.6527 39.0125L80.653 38.8728C80.653 38.6965 80.6462 38.4663 80.5921 38.2479C80.4564 37.6984 80.1564 37.253 79.701 36.9244C79.1833 36.551 78.5803 36.3613 77.909 36.3595C76.4636 36.3564 75.0186 36.3573 73.5734 36.3607C73.4008 36.3613 73.2224 36.3763 73.0438 36.4056C72.647 36.4713 72.267 36.6229 71.914 36.8567C71.891 36.8721 71.7679 36.9534 71.6731 37.0257V37.0302V36.4019H69.8667V46.9766C70.0638 46.976 70.4026 46.974 70.7456 46.972C71.1034 46.9698 71.4652 46.9678 71.6766 46.9672L71.6768 41.9683C71.676 40.9807 71.676 39.9932 71.6768 39.0056V38.9578C71.6765 38.8589 71.6763 38.7567 71.6893 38.6549C71.7371 38.2849 71.9351 38.0286 72.2622 37.9143C72.4186 37.8596 72.583 37.8301 72.7378 37.8286C73.3655 37.8235 73.9935 37.8244 74.6216 37.8247L75.2584 37.8252L75.9143 37.8247C76.5358 37.8241 77.1573 37.8235 77.7791 37.8292C77.9264 37.8304 78.0905 37.8614 78.2538 37.9182C78.6073 38.0414 78.8278 38.3603 78.8286 38.7508C78.8315 39.9428 78.8309 41.1352 78.8292 42.3272C78.8283 42.7866 78.5618 43.1225 78.1158 43.2258C77.9728 43.2588 77.8223 43.2758 77.6687 43.2761C76.4459 43.2787 75.4456 43.2781 74.4046 43.2784H73.4568L72.1023 44.7375C73.4998 44.7415 76.4095 44.739 77.8459 44.7372L77.9975 44.737Z" fill="black"/>
<path d="M134.591 44.7028V32.4221L132.781 32.4314L132.781 42.146C132.781 42.2452 132.781 42.3476 132.768 42.4498C132.72 42.8201 132.522 43.0761 132.195 43.1904C132.039 43.245 131.874 43.2746 131.72 43.276L126.678 43.2757C126.531 43.2743 126.367 43.2433 126.203 43.1864C125.85 43.0633 125.63 42.7444 125.629 42.3539C125.626 41.1618 125.627 39.9695 125.628 38.7774C125.629 38.3181 125.896 37.9822 126.342 37.8789C126.485 37.8459 126.635 37.8289 126.789 37.8286L131.001 37.8263L132.355 36.3671C130.957 36.3629 128.045 36.3657 126.608 36.3674L126.46 36.3677C126.365 36.368 126.265 36.3799 126.169 36.3916L126.146 36.3945C125.626 36.457 125.16 36.6371 124.759 36.9295C124.412 37.1829 124.155 37.5003 123.995 37.8724C123.866 38.1724 123.804 38.5012 123.804 38.8767C123.806 39.9951 123.805 41.1135 123.804 42.2319C123.804 42.4082 123.811 42.6383 123.865 42.8571C124.001 43.4066 124.301 43.8517 124.756 44.1802C125.274 44.5537 125.877 44.7434 126.548 44.7451C127.994 44.7485 129.439 44.7477 130.884 44.744C131.057 44.7434 131.235 44.7283 131.413 44.6991C131.81 44.6333 132.19 44.4817 132.543 44.2479C132.566 44.2329 132.661 44.1723 132.784 44.0972V44.0952H132.787L132.784 44.0972V44.7028H134.591Z" fill="black"/>
<path d="M108.095 32.2404H106.281V44.7384H108.095V32.2404Z" fill="black"/>
<path d="M52.8184 32.2404V37.9339C51.2922 37.9339 46.2509 37.9336 45.3742 37.9328L44.187 39.3916C45.6052 39.3939 50.6803 39.3931 52.8184 39.3919V44.739L54.6325 44.7378L54.6323 32.2404H52.8184Z" fill="black"/>
<path d="M147.686 36.4324C147.686 36.4136 147.685 36.3946 147.684 36.3747C147.449 36.3755 147.216 36.3755 146.983 36.3752C146.618 36.3747 146.253 36.3744 145.886 36.3781L145.879 37.0269C145.879 37.0269 145.149 36.3576 143.921 36.3576C143.245 36.3576 142.568 36.3585 141.892 36.3587C141.153 36.3587 140.416 36.3585 139.678 36.3602C139.461 36.3607 139.288 36.3727 139.134 36.3983C138.71 36.4677 138.326 36.611 137.993 36.8241C137.52 37.1261 137.195 37.5283 137.026 38.0198C136.936 38.2795 136.893 38.5631 136.894 38.8868C136.896 39.6209 136.896 40.3547 136.895 41.0889L136.895 42.1896C136.895 42.3907 136.908 42.5591 136.936 42.7192C137.01 43.1553 137.192 43.5324 137.477 43.8399C138.012 44.4167 138.688 44.716 139.489 44.729C140.822 44.7515 142.376 44.7438 143.878 44.7362L144.052 44.735L145.406 43.2764C143.765 43.2793 141.396 43.2793 139.842 43.275C139.699 43.2747 139.54 43.2508 139.369 43.2042C138.988 43.1007 138.75 42.798 138.717 42.3737C138.713 42.3284 138.713 42.2829 138.713 42.2374V41.0394L138.713 38.8936C138.713 38.7477 138.721 38.5913 138.777 38.438C138.875 38.1746 139.059 37.9928 139.311 37.9123C139.48 37.858 139.64 37.8298 139.784 37.8284C140.412 37.8227 141.041 37.8236 141.669 37.8241L142.305 37.8247L142.935 37.8241C143.566 37.8239 144.196 37.823 144.827 37.8284C144.97 37.8295 145.126 37.8577 145.288 37.912C145.558 38.0028 145.744 38.203 145.824 38.4906C145.857 38.6072 145.874 38.7266 145.875 38.8364L145.883 45.5971H145.882V45.623C145.882 45.7226 145.882 45.8221 145.882 45.9214C145.882 46.005 145.861 46.0983 145.824 46.1842C145.73 46.3995 145.561 46.554 145.32 46.6433C145.155 46.705 144.974 46.7391 144.776 46.7343L142.615 46.7334C141.625 46.7334 140.611 46.7332 139.766 46.732L138.578 48.1917C139.881 48.1986 142.16 48.1952 143.846 48.1929L145.031 48.1912C145.154 48.1909 145.28 48.1792 145.397 48.1661C145.81 48.1212 146.204 47.9844 146.568 47.7603C147.008 47.4883 147.315 47.1396 147.504 46.6942C147.63 46.399 147.688 46.075 147.688 45.6748C147.686 43.5799 147.686 41.4848 147.686 39.3899V36.4324Z" fill="black"/>
<path d="M67.5814 36.4393C67.5814 36.4265 67.5811 36.4137 67.5803 36.4009H65.7744V37.4837C65.7747 39.0475 65.7747 40.611 65.7727 42.1746C65.7727 42.3054 65.7585 42.434 65.7312 42.5566C65.6692 42.8336 65.5102 43.0341 65.2579 43.1522C65.0761 43.2375 64.8699 43.2773 64.6091 43.2773H63.4722C62.2406 43.2773 61.009 43.2776 59.7771 43.2753C59.6232 43.2748 59.4728 43.2577 59.3297 43.2241C58.9904 43.1448 58.7603 42.9417 58.6459 42.6211C58.593 42.4724 58.593 42.3228 58.593 42.1911L58.5927 36.46C58.5927 36.4401 58.5919 36.4205 58.5907 36.4006H56.7889L56.7886 37.6896C56.7886 39.1798 56.7886 40.6696 56.7903 42.1598C56.7906 42.327 56.8017 42.4977 56.8233 42.6678C56.8793 43.1055 57.0571 43.4926 57.3523 43.8183C57.8856 44.4074 58.5677 44.7134 59.3795 44.7282L64.0957 44.7339C64.6515 44.7339 65.1412 44.5971 65.5426 44.3297C65.5659 44.3144 65.6777 44.2361 65.7721 44.1252L65.7744 44.1244L65.7727 45.8799C65.7698 46.1549 65.6396 46.3848 65.3964 46.5443C65.2032 46.6712 64.9714 46.7329 64.6879 46.7329H64.6867L62.9881 46.7326C61.837 46.7326 60.5835 46.7323 59.6554 46.7315L58.4682 48.1903C60.0684 48.1929 63.4747 48.1915 64.9137 48.1903C65.0249 48.1901 65.1452 48.1821 65.2923 48.1647C65.7915 48.1059 66.2446 47.9275 66.6391 47.6348C67.26 47.1746 67.576 46.5659 67.578 45.8253C67.5848 43.5123 67.5834 41.1606 67.5822 38.8862L67.5814 36.4393Z" fill="black"/>
<path d="M16.3656 50.2588C16.3694 50.2588 16.3778 50.2571 16.3816 50.2571C16.8404 50.2175 17.645 50.1254 18.1092 50.0685C18.1345 50.0657 18.1602 50.0648 18.1861 50.0648C18.5123 50.0648 18.8716 50.2434 19.0596 50.4988L20.137 51.9625C20.1764 52.0154 20.3035 52.0811 20.393 52.0757L23.5159 51.7461C23.5882 51.7384 23.7085 51.6505 23.7378 51.584L24.9503 48.8278C25.0079 48.6967 24.9866 48.4947 24.9031 48.3787L23.7666 46.8012C23.5653 46.5216 23.5198 46.0901 23.6586 45.7747L24.1233 44.718C24.1511 44.6549 24.142 44.5206 24.1082 44.4481C24.1036 44.4381 24.0972 44.4293 24.0904 44.4205L23.3881 43.5342C23.2843 43.4031 23.0784 43.4295 23.0111 43.5826L22.2313 45.3552C22.092 45.6717 21.7413 45.9286 21.3974 45.9655L19.8187 46.1365C19.6773 46.1519 19.5147 46.271 19.4574 46.401L18.8076 47.8781C18.6743 48.1813 18.3461 48.4341 18.0177 48.491C15.8993 48.7482 8.93544 49.5056 6.94819 49.7758C6.59213 49.8125 6.19447 49.6199 5.99684 49.3352L4.55274 47.3123C4.43158 47.1411 4.23114 46.8746 4.10286 46.7091L2.67799 44.7547C2.47519 44.474 2.42943 44.0422 2.56822 43.7265L4.8283 38.5891C4.96742 38.2728 5.31759 38.0156 5.66095 37.9772L9.14748 37.5896C9.2891 37.5736 9.45188 37.4542 9.50928 37.3236L9.96799 36.2809C10.0313 36.137 9.91534 35.9785 9.75907 35.9956C9.02085 36.0767 7.95809 36.2004 6.98502 36.3025C6.1735 36.3793 5.04891 36.4308 4.25961 36.5602C4.25031 36.5619 4.2414 36.5636 4.23253 36.5667C4.14455 36.5983 4.01778 36.7115 3.98172 36.7937L0.655717 44.3542C0.625576 44.4228 0.641277 44.5761 0.684679 44.637C1.73283 46.1149 3.18971 48.1045 4.32372 49.5156L4.33117 49.5244L4.33808 49.5335L4.66791 49.9761C4.99325 50.401 6.07697 51.9125 6.40688 52.3679C6.70886 52.7513 7.26416 53.4703 7.55972 53.8657C7.91731 54.3134 8.91905 55.7481 9.26489 56.2262C9.68859 56.8175 9.75847 56.8835 10.3734 57.6663C10.4096 57.7124 10.4674 57.7371 10.5257 57.7314C13.0729 57.4774 14.1172 57.3363 16.1047 57.1128C16.2896 57.092 16.3823 56.8787 16.2708 56.7296C16.049 56.4338 15.7539 56.0479 15.5682 55.8086C15.4674 55.6787 15.3049 55.6132 15.1419 55.6357C15.0884 55.6431 15.0346 55.6525 14.9808 55.6588C13.6911 55.8138 11.7697 56.0467 11.6309 56.0513C11.3099 56.051 11.0347 55.9765 10.837 55.7373L10.7497 55.6437C10.7454 55.6391 10.7413 55.6343 10.7375 55.6292L10.2313 54.9511C9.9078 54.5321 8.93692 53.1643 8.60911 52.7171C8.50332 52.5795 8.16101 52.0911 8.08424 51.8863C8.024 51.7259 8.04291 51.5518 8.13615 51.409C8.24813 51.2372 8.45258 51.1306 8.69785 51.1149L9.32966 51.0589C9.8147 51.0231 11.3553 50.8043 11.8648 50.7429" fill="black"/>
<path d="M28.1599 47.673C28.3707 47.9443 28.4258 48.3838 28.2876 48.6978L26.0003 53.8972C25.8611 54.2135 25.5108 54.4707 25.1673 54.5088L19.5508 55.1286C19.5201 55.132 19.4887 55.1337 19.4567 55.1337C19.1366 55.1337 18.8072 54.9371 18.6256 54.6891L16.4455 51.762C16.4062 51.7082 16.2776 51.6403 16.1886 51.64L14.7646 51.8584C14.7283 51.8641 14.7097 51.9054 14.7293 51.9364C15.5432 53.2305 16.1014 53.856 16.6362 54.5696L18.0734 56.5496C18.1725 56.6892 18.3365 56.7783 18.4618 56.7783C19.0927 56.7783 19.0701 56.687 20.0265 56.5871C22.0113 56.365 22.5175 56.3246 23.8912 56.1955C24.4225 56.1551 26.0457 55.9412 26.5944 55.8775C26.6672 55.8681 26.7915 55.7754 26.8218 55.7062L33.2871 41.0096C33.3173 40.9407 33.3016 40.7869 33.2584 40.7257C32.2094 39.3115 30.9937 37.6271 29.796 36.0527C29.7747 36.0249 29.7317 36.0303 29.7175 36.0621L29.1304 37.3964C29.1011 37.463 29.1179 37.6109 29.1611 37.6695L31.0023 39.9873C31.5051 40.6281 31.3888 41.9479 31.2125 42.2724L29.6285 45.61C29.4359 46.0657 28.8829 46.1228 28.6011 45.7226L22.9074 37.9633C22.7028 37.6845 22.6554 37.2525 22.7947 36.9359L23.4809 35.3758C23.4932 35.3479 23.5013 35.2933 23.5056 35.2327C23.515 35.0999 23.4782 34.9682 23.4035 34.8581C23.3678 34.8055 23.3255 34.7458 23.2796 34.6852L22.4748 33.6129C22.1061 33.1342 22.0428 33.0085 21.6117 32.4507C21.5397 32.3574 21.4304 32.2996 21.3129 32.2945C21.2555 32.2923 21.1974 32.2925 21.1505 32.2974C21.1465 32.2977 20.7389 32.3372 20.3578 32.3844C19.544 32.4854 18.2723 32.6578 18.2595 32.6595C18.1841 32.6697 18.0585 32.7644 18.0278 32.8341L17.2294 34.6488C17.0985 34.9463 16.7278 35.2248 16.4056 35.2674L15.1934 35.4281C15.1179 35.4381 14.9917 35.53 14.9557 35.6002L14.3991 36.9493C14.3799 36.9959 14.4179 37.046 14.468 37.04C15.318 36.9393 16.3596 36.8179 16.6693 36.8219C16.8815 36.8219 17.1133 36.8389 17.2741 36.8662C17.4338 36.8932 17.5942 37.0204 17.7509 37.244C18.1139 37.7616 18.4997 38.3777 18.4997 38.3777C18.7289 38.6473 19.1552 38.5922 19.2818 38.5754C19.2899 38.5742 20.1992 38.3979 20.2064 38.3979C20.3562 38.3811 20.5585 38.3726 20.759 38.3723C20.8615 38.3723 20.9563 38.3749 21.0331 38.38C21.2431 38.3942 21.5551 38.5549 21.865 39.0589" fill="black"/>
<path d="M7.41787 29.3629C7.34972 29.3683 7.23216 29.4519 7.20463 29.5145L4.83416 34.9031C4.82489 34.9241 4.84147 34.9475 4.86437 34.9455L6.32843 34.8286C6.40424 34.8141 6.52333 34.7233 6.55305 34.6556L8.01273 31.3377C8.15196 31.0211 8.50253 30.764 8.84632 30.7268L13.2504 30.2466C13.2796 30.2432 13.3076 30.2418 13.3346 30.2418C13.7838 30.2358 14.052 30.6719 13.8614 31.08L9.97501 39.9145C9.83615 40.2302 9.48667 40.4879 9.14407 40.5275L7.33794 40.736C7.2498 40.7462 7.14845 40.8207 7.11273 40.9021L5.84828 43.7766C5.81819 43.8448 5.83397 43.9976 5.87738 44.0584L6.27189 44.6051C6.55018 44.9837 7.04017 45.6484 7.31459 46.0381C7.41264 46.1721 7.5974 46.4243 7.75711 46.5512L7.78999 46.57C7.88292 46.6229 7.98904 46.6488 8.09593 46.6451C8.77456 46.6209 9.18596 46.5885 9.81422 46.4977C10.1409 46.4505 10.6367 46.2412 10.7861 46.4502L11.8071 47.7905C11.8501 47.8556 11.9241 47.8932 12.0021 47.8895C12.5567 47.8619 13.0829 47.7455 13.3304 47.6992C13.3769 47.6906 13.3982 47.6363 13.3704 47.5982L12.0611 45.7986C11.8683 45.5338 11.8185 45.0716 11.9505 44.7718L12.588 43.3226C12.6186 43.2529 12.6035 43.0962 12.5601 43.0336C12.5526 43.0097 11.5217 41.5776 11.4876 41.5489C11.2785 41.2713 11.2283 40.8389 11.3683 40.5206L15.8004 30.4455C15.9396 30.1292 16.2599 29.8965 16.572 29.8806L16.689 29.8584C18.2435 29.5961 18.86 29.616 19.7576 29.4895C20.3582 29.4514 21.9738 29.2878 22.5644 29.314C22.6168 29.3157 23.0463 29.3709 23.395 29.8786C23.6168 30.2017 23.8348 30.4935 24.1395 30.917C24.7837 31.8062 24.8933 31.9086 25.365 32.5195L26.563 34.2478C26.7693 34.5251 26.8184 34.9526 26.6795 35.2686L25.2296 38.5643C25.1997 38.6323 25.199 38.8067 25.2522 38.8496L26.122 39.9504C26.1509 39.9868 26.2084 39.9794 26.2271 39.9367L28.5689 34.6138C28.598 34.5475 28.5826 34.4011 28.5406 34.3405L28.3003 34.0287C28.0007 33.6126 27.0144 32.2928 26.6852 31.8625C26.408 31.4677 25.5897 30.3499 25.2917 29.9443C25.0127 29.5168 23.9678 28.1223 23.6514 27.6864C23.6173 27.6408 23.4999 27.5823 23.4157 27.5909C23.3823 27.5961 22.5916 27.72 21.9985 27.7822" fill="black"/>
</g>
</g>
</g>
<defs>
<clipPath id="clip0_674_3103">
<rect width="170.66" height="85.33" fill="white" transform="translate(0.640137)"/>
</clipPath>
<clipPath id="clip1_674_3103">
<rect width="170.66" height="85.33" fill="white" transform="translate(0.640137)"/>
</clipPath>
</defs>
</svg>
