<svg width="171" height="86" viewBox="0 0 171 86" fill="none" xmlns="http://www.w3.org/2000/svg">
<g clip-path="url(#clip0_674_3081)">
<g clip-path="url(#clip1_674_3081)">
<g clip-path="url(#clip2_674_3081)">
<path d="M69.8628 33.9208H60.0058H59.8787V52.7966H63.1451V46.138H69.8628C73.2459 46.138 75.9887 43.4035 75.9887 40.029C75.9887 36.6545 73.2459 33.9199 69.8628 33.9199V33.9208ZM69.5773 43.3193H63.1451V36.7404H69.5773C71.3988 36.7404 72.8764 38.2132 72.8764 40.0298C72.8764 41.8465 71.3988 43.3193 69.5773 43.3193ZM85.2615 33.9208L77.5246 52.7912H80.9159L82.4271 49.0518H92.4079L93.9191 52.7912H97.3104L89.5735 33.9208H85.2629H85.2615ZM83.6038 46.1389L87.0728 37.553H87.7594L91.2283 46.1389H83.6038ZM110.695 47.6356L114.112 52.7958H117.714L113.148 45.9014C115.742 45.1616 117.632 42.7618 117.585 39.928C117.53 36.5597 114.634 33.9208 111.256 33.9208H101.612H101.393V52.7966H104.629V46.138H107.904C109.027 46.138 110.075 46.7007 110.695 47.6347V47.6356ZM104.629 43.3193V36.7404H111.177C112.998 36.7404 114.475 38.2132 114.475 40.0298C114.475 41.8465 112.998 43.3193 111.177 43.3193H104.629ZM126.988 33.9216H137.905V36.8308H127.396C126.835 36.8308 126.379 37.2845 126.379 37.8445V43.2519H135.409V46.2302H126.379V52.7975H123.176V37.7242C123.176 35.624 124.884 33.9216 126.989 33.9216H126.988ZM143.214 33.9216H146.426V52.7975H143.214V33.9216ZM170.748 33.9216V52.7921H165.53C164.538 52.7921 163.642 52.2039 163.249 51.2962L157.342 37.6451C157.195 37.3041 156.858 37.0834 156.485 37.0834H155.462V52.7921H152.25V33.9208H157.627C158.623 33.9208 159.523 34.5135 159.914 35.428L165.66 48.8896C165.806 49.2324 166.144 49.4548 166.518 49.4548H167.538V33.9208H170.75L170.748 33.9216Z" fill="black"/>
<path d="M12.0535 61.0903C8.88037 61.0903 5.89926 59.8425 3.67428 57.5801C1.4946 55.363 0.286139 53.0033 0.320794 49.8981C0.355448 46.8445 1.55591 44.5326 3.71248 42.3598C5.93481 40.1205 8.98086 38.8877 12.1406 38.8877H18.8609V29.826C18.8609 29.1775 19.1194 28.5562 19.5788 28.0972L23.0772 24.6084C23.5375 24.1503 24.1603 23.8924 24.8107 23.8924H30.0294C33.1599 23.8924 36.1791 25.1064 38.3943 27.3111C40.6157 29.5222 41.8394 31.819 41.8394 34.9489C41.8394 38.0788 40.6186 40.4669 38.4023 42.6769C36.1863 44.887 33.2398 46.1046 30.1056 46.1046H23.6938V55.1567C23.6938 55.8052 23.4353 56.4264 22.9759 56.8855L19.4775 60.3741C19.0181 60.8323 18.3944 61.0903 17.744 61.0903H12.0526H12.0535ZM12.1957 43.1147C8.06115 43.1147 4.6979 45.9149 4.70057 50.0381C4.70236 54.1473 8.14022 56.8642 12.2606 56.8642H18.7365V47.8112C18.7365 47.1627 18.995 46.5415 19.4544 46.0825L23.0159 42.5936C23.4752 42.1354 24.099 41.8777 24.7494 41.8777H30.0906C34.2251 41.8777 37.5885 39.0678 37.586 34.9443C37.584 30.8354 34.146 28.1184 30.0257 28.1184H23.8182V37.1811C23.8182 37.8296 23.5596 38.4508 23.1003 38.9099L19.602 42.3988C19.1426 42.857 18.5188 43.1147 17.8683 43.1147H12.1957Z" fill="black"/>
</g>
</g>
</g>
<defs>
<clipPath id="clip0_674_3081">
<rect width="170.66" height="85.33" fill="white" transform="translate(0.320068)"/>
</clipPath>
<clipPath id="clip1_674_3081">
<rect width="170.66" height="85.33" fill="white" transform="translate(0.320068)"/>
</clipPath>
<clipPath id="clip2_674_3081">
<rect width="170.66" height="85.33" fill="white" transform="translate(0.320068)"/>
</clipPath>
</defs>
</svg>
