<svg width="172" height="86" viewBox="0 0 172 86" fill="none" xmlns="http://www.w3.org/2000/svg">
<g clip-path="url(#clip0_674_3087)">
<g clip-path="url(#clip1_674_3087)">
<g clip-path="url(#clip2_674_3087)">
<mask id="mask0_674_3087" style="mask-type:luminance" maskUnits="userSpaceOnUse" x="0" y="18" width="172" height="50">
<path d="M171.64 18.2031H0.97998V67.2958H171.64V18.2031Z" fill="white"/>
</mask>
<g mask="url(#mask0_674_3087)">
<path d="M63.1841 36.7386C62.7332 36.5885 61.7815 36.4881 60.8295 36.4881C57.9741 36.4881 54.9182 38.8014 54.9182 41.6568V55.274H48.4058V30.9777H54.6678V33.4324C56.1204 31.6288 58.7754 30.4766 61.7312 30.4766C62.4704 30.482 63.2077 30.5491 63.9355 30.6771L63.1841 36.7386Z" fill="black"/>
<path d="M70.5468 18.2031C72.9014 18.2031 74.8051 20.0066 74.8051 22.3611C74.8051 24.7156 72.9014 26.5189 70.5468 26.5189C68.1923 26.5189 66.2886 24.7156 66.2886 22.3611C66.2886 20.0066 68.1923 18.2031 70.5468 18.2031ZM73.803 55.2739H67.2906V30.9776H73.803V55.2739Z" fill="black"/>
<path d="M93.0402 30.4755C90.4555 30.4428 87.9403 31.3114 85.9268 32.9324V30.9775H79.6636V67.2957H86.1765V53.5712C88.0288 55.0343 90.3293 55.8131 92.6895 55.7758C96.2967 55.7758 99.7522 54.1714 101.907 51.6666C103.811 49.462 104.961 46.4578 104.961 43.1507C104.961 35.987 99.6516 30.4755 93.0402 30.4755ZM92.2486 49.863C88.2031 49.863 85.5442 47.0713 85.5442 43.172C85.5442 39.2727 88.2031 36.481 92.2486 36.481C95.7016 36.481 98.5013 39.4772 98.5013 43.172C98.5013 46.8668 95.7016 49.863 92.2486 49.863Z" fill="black"/>
<path d="M144.488 55.2731H137.976V19.7051H144.488V55.2731Z" fill="black"/>
<path d="M171.036 51.4165C168.682 54.2219 164.824 55.7749 161.067 55.7749C153.804 55.7749 148.343 50.7655 148.343 43.1509C148.343 36.3879 152.952 30.4766 160.166 30.4766C166.879 30.4766 171.638 36.1374 171.638 42.9003C171.642 43.5215 171.591 44.1416 171.487 44.754H154.655C155.006 48.1603 157.761 50.5149 161.218 50.5149C163.973 50.5149 166.177 48.9619 167.329 47.7095L171.036 51.4165ZM164.975 39.9948C164.774 37.8408 162.821 35.7369 160.166 35.7369C157.46 35.7369 155.256 37.7908 154.956 39.9948H164.975Z" fill="black"/>
<path d="M122.196 30.4755C119.612 30.4428 117.097 31.3114 115.083 32.9324V30.9775H108.82V67.2957H115.333V53.5712C117.185 55.0343 119.486 55.8131 121.846 55.7758C125.453 55.7758 128.909 54.1714 131.063 51.6666C132.967 49.462 134.117 46.4578 134.117 43.1507C134.117 35.987 128.808 30.4755 122.196 30.4755ZM121.405 49.863C117.359 49.863 114.7 47.0713 114.7 43.172C114.7 39.2727 117.359 36.481 121.405 36.481C124.858 36.481 127.658 39.4772 127.658 43.172C127.658 46.8668 124.858 49.863 121.405 49.863Z" fill="black"/>
<path d="M34.9797 46.422C33.5095 45.573 31.8535 45.327 30.2135 45.2698C28.8373 45.2217 26.7843 44.3397 26.7843 41.8367C26.7843 39.9714 28.2962 38.4704 30.214 38.4036C31.8541 38.3461 33.5098 38.0998 34.9797 37.2511C36.3001 36.4888 37.3968 35.3923 38.1591 34.072C38.9214 32.7513 39.3227 31.2535 39.3227 29.7289C39.3227 28.2042 38.9214 26.7063 38.1591 25.3859C37.3965 24.0655 36.3001 22.969 34.9797 22.2066C33.6591 21.4443 32.1613 21.043 30.6367 21.043C29.112 21.0431 27.6141 21.4444 26.2937 22.2068C24.9733 22.9692 23.8768 24.0657 23.1145 25.3862C22.3522 26.7066 21.9509 28.2045 21.9509 29.7292C21.9509 31.4122 22.5495 32.9607 23.3132 34.3971C23.9556 35.6053 24.2806 37.8475 22.0775 39.1192C20.4387 40.0655 18.3934 39.4662 17.3718 37.8313C16.5089 36.4504 15.4672 35.1565 14.0088 34.3143C12.6884 33.552 11.1905 33.1507 9.66586 33.1507C8.14116 33.1507 6.64333 33.552 5.32291 34.3143C4.00251 35.0766 2.90601 36.1731 2.14367 37.4937C1.38132 38.814 0.97998 40.3119 0.97998 41.8364C0.97998 43.3613 1.38132 44.8591 2.14367 46.1794C2.90601 47.4998 4.00251 48.5963 5.32291 49.3588C6.64333 50.1211 8.14116 50.5224 9.66586 50.5224C11.1905 50.5224 12.6884 50.1211 14.0088 49.3585C15.4668 48.5169 16.5086 47.2239 17.371 45.8438C18.0791 44.7103 19.8478 43.2657 22.0774 44.5542C23.7137 45.4993 24.2196 47.5709 23.3125 49.2772C22.5488 50.7133 21.9511 52.2615 21.9511 53.9442C21.9511 55.4687 22.3524 56.9666 23.1148 58.2869C23.8771 59.6075 24.9736 60.704 26.294 61.4663C27.6143 62.2286 29.1122 62.6299 30.6367 62.6299C32.1616 62.6299 33.6594 62.2286 34.9797 61.4663C36.3001 60.704 37.3965 59.6075 38.1588 58.2869C38.9214 56.9666 39.3227 55.4687 39.3227 53.9442C39.3227 52.4196 38.9214 50.9218 38.1588 49.6012C37.3965 48.2808 36.3001 47.1843 34.9797 46.422Z" fill="black"/>
</g>
</g>
</g>
</g>
<defs>
<clipPath id="clip0_674_3087">
<rect width="170.66" height="85.33" fill="white" transform="translate(0.97998)"/>
</clipPath>
<clipPath id="clip1_674_3087">
<rect width="170.66" height="85.33" fill="white" transform="translate(0.97998)"/>
</clipPath>
<clipPath id="clip2_674_3087">
<rect width="170.66" height="85.33" fill="white" transform="translate(0.97998)"/>
</clipPath>
</defs>
</svg>
